<svg width="14" height="22" viewBox="0 0 14 22" fill="none" xmlns="http://www.w3.org/2000/svg">
<path d="M9.2396 2.0625C9.2396 3.2016 8.33624 4.125 7.2228 4.125C6.10937 4.125 5.20601 3.2016 5.20601 2.0625C5.20601 0.923398 6.10937 0 7.2228 0C8.33624 0 9.2396 0.923398 9.2396 2.0625ZM6.88667 15.125V20.625C6.88667 21.3855 6.28584 22 5.54214 22C4.79845 22 4.19762 21.3855 4.19762 20.625V11.0387L2.9972 13.084C2.61485 13.7328 1.78881 13.9434 1.15226 13.5523C0.515692 13.1613 0.309786 12.3191 0.692304 11.666L3.1409 7.50234C3.86989 6.26055 5.1808 5.5 6.59676 5.5H7.84885C9.2648 5.5 10.5757 6.26055 11.3068 7.50234L13.7522 11.666C14.1345 12.3191 13.9286 13.1613 13.2942 13.5523C12.6555 13.9434 11.832 13.7328 11.4497 13.084L10.248 11.0387V20.625C10.248 21.3855 9.64716 22 8.90346 22C8.15977 22 7.55894 21.3855 7.55894 20.625V15.125H6.88667Z" fill="#0065FC"/>
</svg>
