<svg width="18" height="21" viewBox="0 0 18 21" fill="none" xmlns="http://www.w3.org/2000/svg">
<path d="M6.39727 0.212729C6.71067 -0.0735102 7.19683 -0.0695891 7.51022 0.21665C8.61915 1.23221 9.65977 2.32619 10.6321 3.51036C11.0741 2.94572 11.5763 2.33011 12.1187 1.82821C12.4361 1.53805 12.9263 1.53805 13.2437 1.83214C14.6339 3.12609 15.8111 4.83568 16.6388 6.45901C17.4544 8.05881 17.9968 9.6939 17.9968 10.8467C17.9968 15.85 13.987 20.0769 8.99683 20.0769C3.9504 20.0769 -0.00317383 15.8461 -0.00317383 10.8428C-0.00317383 9.33708 0.712005 7.4981 1.82093 5.67872C2.94192 3.83189 4.52495 1.90664 6.39727 0.212729ZM9.06513 16.3127C10.0816 16.3127 10.9816 16.0382 11.8294 15.4893C13.5209 14.3365 13.975 12.0309 12.9584 10.2193C12.7776 9.86643 12.3156 9.84291 12.0544 10.1409L11.0419 11.2898C10.7767 11.5878 10.2986 11.5799 10.0495 11.2702C9.38656 10.4468 8.20129 8.97635 7.52629 8.14116C7.27316 7.82747 6.79102 7.82355 6.53388 8.13723C5.17584 9.80369 4.49281 10.8545 4.49281 12.0348C4.49683 14.7207 6.52986 16.3127 9.06513 16.3127Z" fill="#0065FC"/>
</svg>
